<svg width="170" height="20" viewBox="0 0 170 20" fill="none" xmlns="http://www.w3.org/2000/svg">
<g clip-path="url(#clip0_400_3234)">
<path d="M56.7695 2.09662C55.3903 1.29811 53.8258 0.909088 52.0761 0.909088C50.3264 0.909088 48.762 1.29811 47.3828 2.09662C46.0036 2.89514 44.9126 4.02125 44.1304 5.45448C43.3481 6.90818 42.957 8.56664 42.957 10.4708C42.957 12.3545 43.3481 14.0334 44.1304 15.4871C44.9126 16.9408 46.0036 18.0464 47.3828 18.845C48.762 19.6435 50.3264 20.0325 52.0761 20.0325C53.8258 20.0325 55.3903 19.6435 56.7695 18.845C58.1486 18.0464 59.2396 16.9203 60.0219 15.4871C60.8041 14.0334 61.1952 12.3749 61.1952 10.4708C61.1952 8.58711 60.8041 6.90818 60.0219 5.45448C59.2396 4.00077 58.1486 2.89514 56.7695 2.09662ZM56.2137 15.0367C55.2462 16.2037 53.867 16.777 52.0761 16.777C50.2852 16.777 48.906 16.2037 47.9386 15.0367C46.9711 13.8901 46.4976 12.3545 46.4976 10.4708C46.4976 8.58711 46.9711 7.05151 47.9386 5.90492C48.906 4.75834 50.2852 4.16457 52.0761 4.16457C53.867 4.16457 55.2462 4.73787 56.2137 5.90492C57.1812 7.07198 57.6546 8.58711 57.6546 10.4708C57.6546 12.3545 57.1812 13.8696 56.2137 15.0367Z" fill="black"/>
<path d="M62.1826 4.51263H67.4112V19.6639H70.7871V4.51263H76.0156V1.25714H62.1826V4.51263Z" fill="black"/>
<path d="M90.3021 8.54615H81.8418V1.25714H78.4453V19.6639H81.8418V11.6993H90.3021V19.6639H93.678V1.25714H90.3021V8.54615Z" fill="black"/>
<path d="M101.212 11.6993H107.717V8.44377H101.212V4.51263H109.59V1.25714H97.7539V19.6639H109.858V16.4084H101.212V11.6993Z" fill="black"/>
<path d="M125.07 9.97941C125.625 9.16042 125.893 8.11621 125.893 6.84678C125.893 5.00405 125.317 3.61177 124.184 2.6904C123.052 1.74857 121.488 1.27765 119.512 1.27765H112.739V19.6844H116.115V12.8459H119.409H119.532L123.093 19.6844H126.881L122.702 11.9655C123.752 11.4331 124.534 10.7984 125.07 9.97941ZM118.627 10.0204H116.136V4.08269H118.75C120.026 4.08269 120.932 4.32838 121.508 4.84025C122.085 5.35212 122.352 6.06874 122.352 7.03105C122.352 9.0171 121.117 10.0204 118.627 10.0204Z" fill="black"/>
<path d="M134.435 0.929565H132.15L129.516 15.9171C129.351 16.9408 129.269 17.555 129.269 17.7598C129.269 18.415 129.454 18.9269 129.845 19.3159C130.236 19.7049 130.833 19.9096 131.677 19.9096H132.459L133.056 18.1079C132.521 18.1079 132.15 18.0464 131.945 17.9031C131.739 17.7803 131.636 17.5141 131.636 17.1046C131.636 16.9818 131.677 16.6542 131.759 16.1218L134.435 0.929565Z" fill="black"/>
<path d="M137.874 2.1785L137.441 4.67642H139.726L140.159 2.1785H137.874Z" fill="black"/>
<path d="M134.786 19.6639H137.071L139.232 7.42004H136.948L134.786 19.6639Z" fill="black"/>
<path d="M147.836 7.17435C147.157 7.17435 146.539 7.27672 145.963 7.50194C145.387 7.72717 144.79 8.13666 144.172 8.70995L144.255 7.42005H142.32L140.158 19.6639H142.443L144.028 10.7779C144.378 10.2456 144.81 9.83606 145.346 9.56989C145.881 9.30372 146.457 9.1604 147.095 9.1604C147.816 9.1604 148.351 9.34467 148.68 9.69274C149.03 10.0408 149.195 10.6141 149.195 11.3717C149.195 11.6174 149.113 12.2111 148.968 13.153C148.824 14.0948 148.433 16.2447 147.836 19.623H150.121C150.718 16.2447 151.109 14.0539 151.274 13.0506C151.439 12.0473 151.521 11.3921 151.521 11.0441C151.521 9.75417 151.233 8.79185 150.636 8.11619C150.039 7.50194 149.113 7.17435 147.836 7.17435Z" fill="black"/>
<path d="M164.161 7.42006H161.443L156.544 12.9482L158.685 0.929565H156.4L153.086 19.6639H155.371L156.482 13.4396L159.364 19.6639H162.04L158.726 13.0711L164.161 7.42006Z" fill="black"/>
<path d="M22.4206 2.62078C22.7088 2.57983 22.997 2.55936 23.2852 2.55936C24.6026 2.55936 25.8788 2.90743 27.0316 3.56262C30.5928 5.61009 31.8279 10.1555 29.7694 13.6976C27.7109 17.2397 23.1411 18.4682 19.5799 16.4208C16.0187 14.3733 14.7836 9.82789 16.8421 6.28576C17.1509 5.71247 16.945 5.01633 16.4098 4.66826C15.8335 4.29971 15.0512 4.46351 14.7013 5.05728C13.8367 6.55193 13.3633 8.27181 13.3633 9.99168C13.3633 15.4584 17.8096 19.9015 23.3057 19.9015C28.8019 19.9015 33.2482 15.4789 33.2482 10.0122C33.2482 4.54541 28.8019 0.122864 23.3057 0.122864C22.9146 0.122864 22.5235 0.143339 22.1324 0.184289C21.4531 0.266188 20.9591 0.900905 21.0414 1.57657C21.1032 2.23176 21.7207 2.70268 22.4206 2.62078Z" fill="black"/>
<path d="M13.3431 19.881C13.7342 19.881 14.1253 19.8605 14.5164 19.8195C15.1957 19.7376 15.6898 19.1029 15.6074 18.4273C15.5251 17.7516 14.887 17.2602 14.2077 17.3421C13.9195 17.383 13.6313 17.4035 13.3431 17.4035C12.0257 17.4035 10.7494 17.0555 9.59665 16.4003C6.03548 14.3528 4.80039 9.8074 6.85887 6.26527C8.91736 2.72314 13.4872 1.51513 17.0689 3.5626C20.6301 5.61008 21.8652 10.1555 19.8067 13.6976C19.7861 13.7181 19.7656 13.759 19.745 13.7795C19.4362 14.3937 19.6626 15.1308 20.2802 15.4584C20.8977 15.7655 21.6388 15.5403 21.9681 14.9261C22.8533 13.4109 23.3267 11.6706 23.3061 9.90977C23.2856 4.42254 18.8187 0 13.3019 0C7.78519 0.0204747 3.33887 4.46349 3.33887 9.95072C3.33887 15.4789 7.82636 19.9014 13.3431 19.881Z" fill="black"/>
</g>
<defs>
<clipPath id="clip0_400_3234">
<rect width="170" height="20" fill="white"/>
</clipPath>
</defs>
</svg>
